# xmcd
#
# Track frame offsets: 
#        150
#        21248
#        37189
#        53652
#        68213
#        87653
#        104530
#        120376
#        142604
#        163020
#
# Disc length: 2415 seconds
#
# Revision: 1
# Processed by: cddbd v1.5.2PL0 Copyright (c) Steve Scherf et al.
# Submitted via: ExactAudioCopy v1.3
#
DISCID=84096d0a
DTITLE=Spooky Tooth - Witness (2016 Remaster)
DYEAR=1973
DGENRE=Classic Rock
TTITLE0=Ocean Of Power
TTITLE1=Wings On My Heart
TTITLE2=As Long As The World Keeps Turning
TTITLE3=Don't Ever Stray Away
TTITLE4=Things Change
TTITLE5=All Sewn Up
TTITLE6=Dream Me A Mountain
TTITLE7=Sunlight Of My Mind
TTITLE8=Pyramids
TTITLE9=All Sewn Up [Alternate Mix]
EXTD=
EXTT0=
EXTT1=
EXTT2=
EXTT3=
EXTT4=
EXTT5=
EXTT6=
EXTT7=
EXTT8=
EXTT9=
PLAYORDER=
